<svg width="47" height="16" viewBox="0 0 47 16" fill="none" xmlns="http://www.w3.org/2000/svg">
<line x1="23" y1="2" x2="47" y2="2" stroke="#56C281" stroke-width="2"/>
<line x1="23" y1="8" x2="47" y2="8" stroke="#56C281" stroke-width="2"/>
<line x1="23" y1="14" x2="47" y2="14" stroke="#56C281" stroke-width="2"/>
<path d="M4 1H3C1.89543 1 1 1.89543 1 3V4" stroke="#56C281" stroke-width="2"/>
<path d="M12 1H13C14.1046 1 15 1.89543 15 3V4" stroke="#56C281" stroke-width="2"/>
<path d="M4 15H3C1.89543 15 1 14.1046 1 13V12" stroke="#56C281" stroke-width="2"/>
<path d="M12 15H13C14.1046 15 15 14.1046 15 13V12" stroke="#56C281" stroke-width="2"/>
<line x1="1" y1="6" x2="1" y2="10" stroke="#56C281" stroke-width="2"/>
<line x1="15" y1="6" x2="15" y2="10" stroke="#56C281" stroke-width="2"/>
<line x1="10" y1="1" x2="6" y2="1" stroke="#56C281" stroke-width="2"/>
<line x1="10" y1="15" x2="6" y2="15" stroke="#56C281" stroke-width="2"/>
</svg>
