<svg width="47" height="26" viewBox="0 0 47 26" fill="none" xmlns="http://www.w3.org/2000/svg">
<rect x="-1" y="1" width="14" height="14" rx="1" transform="matrix(-1 0 0 1 45 0)" stroke="#56C281" stroke-width="2"/>
<line y1="-1" x2="24" y2="-1" transform="matrix(-1 0 0 1 24 2)" stroke="#56C281" stroke-width="2"/>
<line y1="-1" x2="24" y2="-1" transform="matrix(-1 0 0 1 24 8)" stroke="#56C281" stroke-width="2"/>
<line y1="-1" x2="24" y2="-1" transform="matrix(-1 0 0 1 24 14)" stroke="#56C281" stroke-width="2"/>
<line y1="-1" x2="24" y2="-1" transform="matrix(-1 0 0 1 24 20)" stroke="#56C281" stroke-width="2"/>
<line y1="-1" x2="47" y2="-1" transform="matrix(-1 8.74228e-08 8.74228e-08 1 47 26)" stroke="#56C281" stroke-width="2"/>
</svg>
